<?xml version="1.0" encoding="UTF-8"?>
<svg width="16" height="16" viewBox="0 0 432 404" version="1.1" xmlns="http://www.w3.org/2000/svg" xmlns:xlink="http://www.w3.org/1999/xlink">
    <title>编组</title>
    <defs>
        <linearGradient x1="66.5869222%" y1="44.021868%" x2="50%" y2="77.7811816%" id="linearGradient-1">
            <stop stop-color="#31254F" stop-opacity="0" offset="0%"></stop>
            <stop stop-color="#000000" stop-opacity="0.5" offset="100%"></stop>
        </linearGradient>
        <path d="M138.861562,104.699839 L138.64103,104.871073 C138.325103,105.117065 138.010786,105.364763 137.698074,105.614157 L137.14273,106.063406 L136.210648,106.823186 C136.132348,106.888047 136.054152,106.953016 135.976061,107.018093 L135.115468,107.745535 L134.197234,108.534813 C133.737242,108.936065 133.280986,109.341196 132.828455,109.750168 L131.695141,110.789645 C131.119002,111.325928 130.549055,111.868561 129.985277,112.417462 L128.645601,113.745245 C128.395865,113.997206 128.147378,114.250427 127.900139,114.504902 L126.790301,115.664495 C126.606938,115.858971 126.42428,116.054152 126.242327,116.250034 L174.741148,155.522672 L174.673043,155.608447 L186.538023,165.217442 C185.541703,168.063043 185,171.122253 185,174.307984 C185,186.562087 193.015049,196.944175 204.08872,200.497822 L204.08872,274.118145 C193.015049,277.671792 185,288.05388 185,300.307984 C185,315.495814 197.312169,327.807984 212.5,327.807984 C227.687831,327.807984 240,315.495814 240,300.307984 C240,288.119657 232.070766,277.783303 221.089337,274.17596 L221.089387,200.439991 C223.101026,199.779174 225.010242,198.892551 226.787056,197.810103 L263.718772,227.716902 C262.60739,230.703134 262,233.934627 262,237.307984 C262,252.495814 274.312169,264.807984 289.5,264.807984 C304.687831,264.807984 317,252.495814 317,237.307984 C317,222.120153 304.687831,209.807984 289.5,209.807984 C283.873579,209.807984 278.641808,211.497675 274.284441,214.397302 L237.87922,184.916422 C239.245341,181.652001 240,178.068122 240,174.307984 C240,159.120153 227.687831,146.807984 212.5,146.807984 C206.725998,146.807984 201.36762,148.587479 196.943372,151.627963 L138.929392,104.648837 L139.873268,103.92645 C143.38645,101.275114 147.094,98.8309836 151,96.6079836 C151.9,96.1079836 153.930112,94.8508637 156.097369,93.6068029 C156.140635,93.5819669 156.184272,93.5538993 156.228239,93.5227392 C157.067104,93.2829028 157.893065,92.9787377 158.7,92.6079836 C174.2,85.4079836 192.6,81.5079836 213.9,81.5079836 C234.2,81.5079836 252.1,85.7079836 267.7,93.4079836 C267.991955,93.5502179 268.287272,93.6846065 268.585573,93.8110236 C268.820718,94.0126252 269.91653,94.5607831 271.10779,95.1467792 L271.485614,95.3324125 C272.560046,95.8598966 273.646512,96.3917045 274.2,96.7079836 C317.6,121.307984 336.5,173.407984 336.5,233.607984 C336.5,293.007984 312.527681,355.021179 270.527681,385.421179 C266.456451,389.441606 264.825844,390.676517 264.431281,391.020789 C249.719044,398.858164 232.785531,403.413528 213.8,403.507984 C195.3,403.807984 177.1,399.107984 161.1,390.007984 C160.528378,389.66501 159.934972,389.376496 159.326009,389.141748 C159.404046,388.998043 159.088482,388.79417 156.60899,386.882841 C155.622698,386.122552 155.12244,385.727888 154.885438,385.536409 L154.858,385.513984 C154.87298,385.53634 154.859574,385.537771 154.8,385.507984 C113,355.107984 88.7,293.007984 88.7,233.507984 C88.7,186.315584 100.314832,144.162424 126.242327,116.250034 L126.790301,115.664495 C127.157415,115.275131 127.527359,114.888592 127.900139,114.504902 L128.266174,114.123703 L128.645601,113.745245 C129.088229,113.298676 129.534784,112.856068 129.985277,112.417462 L130.137483,112.267056 L130.469929,111.948607 C130.815948,111.616 131.164265,111.285734 131.514885,110.957827 L131.624552,110.857799 L131.695141,110.789645 C132.070285,110.440453 132.448054,110.093953 132.828455,109.750168 L133.123578,109.481803 L133.692967,108.976891 L134.257549,108.475842 L135.115468,107.745535 L135.303847,107.583131 C135.527058,107.393887 135.751129,107.205539 135.976061,107.018093 L136.156315,106.869612 L136.210648,106.823186 C136.702359,106.415871 137.198164,106.012847 137.698074,105.614157 L138.100212,105.290455 L138.64103,104.871073 C138.714454,104.813902 138.787964,104.756824 138.861562,104.699839 Z M143.429711,92.8793808 L143.402981,92.8952364 C96.7029807,116.395236 74.6,171.307984 74.6,233.607984 C74.6,297.307984 99.5,362.307984 147.3,389.807984 C147.430309,389.873138 147.561151,390.020479 147.692179,390.182628 C138.658432,393.021537 129.268368,394.519494 119.8,394.607984 C43,395.807984 0,312.707984 0,233.707984 C0,154.707984 43.8,91.3079836 120,90.5079836 C127.874704,90.4214484 135.749408,91.2335143 143.429711,92.8793808 Z M311.054822,90.5029976 L312.2,90.5079836 C387.4,90.6079836 432,154.707984 432,233.707984 C432,313.807984 397.5,392.307984 312.3,394.507984 C300.615789,394.897457 289.026385,393.011585 278.085654,389.034988 L278.076,389.031984 L278.425016,388.832643 C279.121027,388.41914 279.800922,387.930564 280.4,387.607984 C328.2,360.107984 350.5,297.407984 350.5,233.707984 C350.5,171.407984 330.3,117.807984 283.6,94.3079836 C283.426408,94.2058709 283.291397,94.13921 283.18517,94.1018255 L283.168306,94.0541725 C283.123516,93.9229957 282.922603,93.9401667 282.840134,93.9540479 L283.933475,93.6896694 C292.445279,91.6780938 301.140121,90.6000234 309.910447,90.509236 L311.054822,90.5029976 Z" id="path-2"></path>
    </defs>
    <g id="页面-1" stroke="none" stroke-width="1" fill="none" fill-rule="evenodd">
        <g id="编组" transform="translate(0.000000, 0.192016)" fill-rule="nonzero">
            <g id="形状结合">
                <use fill="#F98500" xlink:href="#path-2"></use>
                <use fill-opacity="0.2" fill="url(#linearGradient-1)" style="mix-blend-mode: hard-light;" xlink:href="#path-2"></use>
            </g>
            <path d="M187.5,85.3079836 C189.6,84.3079836 192.6,85.3079836 194.9,85.0079836 C199.3,84.4079836 207.1,81.8079836 210.2,86.5079836 C211.5,88.6079836 212.6,95.0079836 216.2,94.2079836 C219.2,93.5079836 220.8,90.5079836 222.8,88.4079836 C225.7,85.3079836 229.9,85.3079836 233.8,86.0079836 C236,86.4079836 243.2,89.4079836 244.7,86.7079836 C245.6,85.1079836 243,84.0079836 241.7,83.6079836 C237.3,82.2079836 227.2,82.7079836 227.2,76.4079836 C227.1,67.1079836 227,58.1079836 225.6,48.8079836 C224.2,39.5079836 221.9,30.4079836 219.7,21.2079836 C218.2,14.8079836 217.7,3.40798359 210.6,0.307983594 C205.8,-1.69201641 204.1,6.60798359 201.7,9.10798359 C198.8,12.1079836 193.2,11.2079836 190.9,14.7079836 C187.9,19.3079836 211.2,56.0079836 204.3,73.2079836 C201.9,79.1079836 192.7,82.6079836 187.5,85.4079836 L187.5,85.3079836 Z" id="路径" fill="#43503D"></path>
        </g>
    </g>
</svg>