<svg xmlns="http://www.w3.org/2000/svg" width="16" height="16" viewBox="0 0 16 16">
    <g fill="none" fill-rule="evenodd">
        <path fill="#6E6E6E" d="M8,1 C11.866,1 15,4.134 15,8 C15,11.866 11.866,15 8,15 C4.134,15 1,11.866 1,8 C1,4.134 4.134,1 8,1 Z M8,2 C4.686,2 2,4.686 2,8 C2,11.314 4.686,14 8,14 C11.314,14 14,11.314 14,8 C14,4.686 11.314,2 8,2 Z"/>
        <path fill="#6E6E6E" d="M5.5,5.5 L10.5,5.5 L10.5,7 L5.5,7 L5.5,5.5 Z M5.5,8 L10.5,8 L10.5,9.5 L5.5,9.5 L5.5,8 Z M5.5,10.5 L8.5,10.5 L8.5,12 L5.5,12 L5.5,10.5 Z"/>
        <circle fill="#59A869" cx="12" cy="12" r="4"/>
        <path fill="#FFFFFF" d="M11,10 L13,10 L13,11.5 L14.5,11.5 L14.5,12.5 L13,12.5 L13,14 L11,14 L11,12.5 L9.5,12.5 L9.5,11.5 L11,11.5 Z"/>
    </g>
</svg> 