<svg id="Capa_1" enable-background="new 0 0 504.5 504.5" height="16" viewBox="0 0 504.5 504.5" width="16"
     xmlns="http://www.w3.org/2000/svg">
    <g>
        <path d="m40.359 495.854c2.969-2.969 302.383-293.17 302.383-293.17l-42.427-42.426s-294.717 294.717-297.776 297.776c-5.895 5.895-1.176 20.171 10.54 31.887 8.221 6.836 21.385 11.828 27.28 5.933z"
              fill="#717ed4"/>
        <path d="m342.742 202.684-19.849-1.364s-285.565 285.565-288.535 288.534c-5.895 5.895-13.059 6.903-21.28.067 11.716 11.716 25.992 16.435 31.887 10.54 3.06-3.059 297.777-297.777 297.777-297.777z"
              fill="#5766cc"/>
        <path d="m362.696 97.878c-1.086 1.086-26.056 26.056-62.381 62.381-5.894 5.895-1.175 20.171 10.54 31.886 3.865 3.865 8.008 6.963 12.038 9.175 0 0 75.446-65.446 76.622-66.623 5.895-5.895 3.653-15.292-4.933-26.28-11.715-11.716-25.991-16.434-31.886-10.539z"
              fill="#f3f1f4"/>
        <path d="m342.742 202.684c36.329-36.329 61.294-61.294 62.38-62.38 5.895-5.895 1.176-20.171-10.54-31.887 6.835 8.224 5.828 15.385-.067 21.28-1.176 1.176-30.348 30.349-71.622 71.623 8.185 4.493 15.899 5.314 19.849 1.364z"
              fill="#d5d9f2"/>
        <path d="m443.358 6c-5.765 0-9.785 43.713-14.183 48.112-4.398 4.398-35.073 8.514-35.073 14.279s30.674 9.88 35.073 14.279c4.398 4.398 8.419 48.112 14.183 48.112s9.785-43.713 14.184-48.112 35.073-8.514 35.073-14.279-30.674-9.88-35.073-14.279c-4.398-4.399-8.419-48.112-14.184-48.112z"
              fill="#da8bc1"/>
        <path d="m435.966 180.568c-4.856 0-8.243 36.825-11.948 40.53s-29.546 7.172-29.546 12.029c0 4.856 25.84 8.323 29.546 12.029 3.705 3.705 7.092 40.53 11.948 40.53s8.243-36.825 11.948-40.53 29.546-7.172 29.546-12.029c0-4.856-25.84-8.323-29.546-12.029-3.705-3.705-7.092-40.53-11.948-40.53z"
              fill="#bd96e4"/>
        <circle cx="361.097" cy="21" fill="#ecc3df" r="15"/>
        <circle cx="264.388" cy="111.956" fill="#ddc9f1" r="15"/>
        <circle cx="352.742" cy="298.948" fill="#ddc9f1" r="15"/>
        <path d="m320.26 24h-10.264v-15c0-4.142-3.357-7.5-7.5-7.5s-7.5 3.358-7.5 7.5v15h-10.264c-4.143 0-7.5 3.358-7.5 7.5s3.357 7.5 7.5 7.5h10.264v15c0 4.142 3.357 7.5 7.5 7.5s7.5-3.358 7.5-7.5v-15h10.264c4.143 0 7.5-3.358 7.5-7.5s-3.358-7.5-7.5-7.5z"
              fill="#bd96e4"/>
        <path d="m497 145.905h-10.264v-15c0-4.142-3.357-7.5-7.5-7.5s-7.5 3.358-7.5 7.5v15h-10.263c-4.143 0-7.5 3.358-7.5 7.5s3.357 7.5 7.5 7.5h10.263v15c0 4.142 3.357 7.5 7.5 7.5s7.5-3.358 7.5-7.5v-15h10.264c4.143 0 7.5-3.358 7.5-7.5s-3.357-7.5-7.5-7.5z"
              fill="#da8bc1"/>
        <circle cx="377.167" cy="262.812" fill="#ecc3df" r="8"/>
        <circle cx="364.102" cy="354.948" fill="#ddc9f1" r="8"/>
    </g>
</svg>